<svg xmlns="http://www.w3.org/2000/svg" width="256" height="256" viewBox="0 0 100 100"><rect width="100" height="100" rx="20" fill="#3ABFF8"></rect><path d="M43.27 27.17L43.27 72.86L37.95 72.86L37.95 51.36L13.89 51.36L13.89 72.86L8.58 72.86L8.58 27.17L13.89 27.17L13.89 46.61L37.95 46.61L37.95 27.17L43.27 27.17ZM75.89 53.67L75.89 48.92L91.42 48.92L91.42 71.14Q87.80 72.30 84.05 72.89Q80.30 73.48 75.36 73.48L75.36 73.48Q64.98 73.48 59.20 67.31Q53.42 61.14 53.42 50.02L53.42 50.02Q53.42 42.89 56.28 37.53Q59.14 32.17 64.52 29.34Q69.89 26.52 77.11 26.52L77.11 26.52Q84.42 26.52 90.73 29.20L90.73 29.20L88.67 33.89Q82.48 31.27 76.77 31.27L76.77 31.27Q68.42 31.27 63.73 36.23Q59.05 41.20 59.05 50.02L59.05 50.02Q59.05 59.27 63.56 64.05Q68.08 68.83 76.83 68.83L76.83 68.83Q81.58 68.83 86.11 67.73L86.11 67.73L86.11 53.67L75.89 53.67Z" fill="#fff"></path></svg>